<svg width="60" height="60" viewBox="0 0 60 60" fill="none" xmlns="http://www.w3.org/2000/svg">
<circle cx="30" cy="30" r="30" fill="#F5F8FB"/>
<path fill-rule="evenodd" clip-rule="evenodd" d="M24.8196 20.1396C21.4081 19.7645 18.6731 20.5338 17.5403 22.5005C16.4074 24.4674 17.1104 27.2264 19.1405 30.0004C17.1104 32.7745 16.4074 35.5334 17.5403 37.5003C18.6732 39.4671 21.4083 40.2364 24.82 39.8612C26.2016 43.0104 28.2338 45 30.4995 45C32.7652 45 34.7974 43.0104 36.1791 39.8613C39.5912 40.2368 42.3267 39.4675 43.4597 37.5005C44.5926 35.5336 43.8896 32.7745 41.8593 30.0004C43.8896 27.2263 44.5926 24.4672 43.4597 22.5003C42.3268 20.5334 39.5914 19.7641 36.1794 20.1395C34.7977 16.9899 32.7654 15 30.4995 15C28.2337 15 26.2013 16.9899 24.8196 20.1396ZM26.2809 22.6764C26.1522 23.0812 26.0332 23.5032 25.9252 23.9411C26.1894 23.777 26.4582 23.6157 26.7315 23.4575C27.0044 23.2996 27.2779 23.147 27.5515 22.9999C27.1191 22.8748 26.695 22.767 26.2809 22.6764ZM24.0172 22.3427C23.6954 23.4193 23.4394 24.5828 23.2603 25.8113C22.2887 26.581 21.4117 27.3848 20.6427 28.2022C20.6154 28.1615 20.5885 28.1209 20.5619 28.0804C19.05 25.7704 19.1124 24.304 19.4985 23.6338C19.8846 22.9635 21.1203 22.1761 23.872 22.3336C23.9201 22.3363 23.9685 22.3394 24.0172 22.3427ZM27.1243 20.5444C28.2154 20.8033 29.3487 21.1628 30.4997 21.6215C31.6506 21.1629 32.7838 20.8033 33.8747 20.5444C33.8532 20.5002 33.8314 20.4564 33.8096 20.4129C32.5698 17.9455 31.2717 17.2665 30.4995 17.2665C29.7274 17.2665 28.4293 17.9455 27.1895 20.4129C27.1676 20.4564 27.1459 20.5002 27.1243 20.5444ZM30.4997 24.0782C29.6304 24.4614 28.7468 24.9083 27.862 25.4204C26.977 25.9326 26.1487 26.4763 25.3828 27.0396C25.2792 27.9857 25.2236 28.9761 25.2236 30C25.2236 31.0242 25.2792 32.0149 25.3829 32.9613C26.1488 33.5246 26.977 34.0683 27.862 34.5804C28.7468 35.0925 29.6304 35.5394 30.4997 35.9227C31.3693 35.5394 32.253 35.0923 33.138 34.5802C34.0226 34.0682 34.8505 33.5248 35.6162 32.9618C35.7198 32.0152 35.7755 31.0244 35.7755 30C35.7755 28.9759 35.7199 27.9854 35.6163 27.0391C34.8506 26.4761 34.0227 25.9326 33.138 25.4206C32.253 24.9085 31.3693 24.4614 30.4997 24.0782ZM35.0738 23.9407C34.8099 23.7768 34.5414 23.6157 34.2685 23.4578C33.9954 23.2997 33.7218 23.147 33.448 22.9998C33.8802 22.8747 34.3042 22.767 34.7182 22.6764C34.8469 23.081 34.9658 23.503 35.0738 23.9407ZM38.022 29.0591C38.0317 29.3703 38.0366 29.684 38.0366 30C38.0366 30.3163 38.0317 30.6303 38.022 30.9417C38.3463 30.629 38.6516 30.3146 38.9369 30.0004C38.6516 29.6862 38.3463 29.3719 38.022 29.0591ZM40.3572 28.2022C39.5879 27.3846 38.7106 26.5806 37.7387 25.8107C37.5596 24.5824 37.3036 23.419 36.9819 22.3426C37.0308 22.3392 37.0795 22.3361 37.128 22.3334C39.8797 22.1759 41.1154 22.9633 41.5015 23.6335C41.8876 24.3038 41.95 25.7702 40.4381 28.0801C40.4115 28.1208 40.3845 28.1615 40.3572 28.2022ZM40.3572 31.7986C39.5879 32.6163 38.7105 33.4203 37.7386 34.1902C37.5594 35.4185 37.3034 36.5818 36.9816 37.6582C37.0307 37.6616 37.0795 37.6647 37.128 37.6675C39.8797 37.8249 41.1154 37.0376 41.5015 36.3673C41.8876 35.697 41.95 34.2306 40.4381 31.9207C40.4115 31.88 40.3845 31.8393 40.3572 31.7986ZM34.7179 37.3244C34.8466 36.9198 34.9656 36.4979 35.0736 36.0603C34.8098 36.2241 34.5414 36.3851 34.2685 36.543C33.9954 36.7011 33.7218 36.8538 33.448 37.001C33.8801 37.1261 34.304 37.2338 34.7179 37.3244ZM27.5515 37.0009C27.2779 36.8538 27.0044 36.7012 26.7315 36.5433C26.4583 36.3852 26.1895 36.2239 25.9254 36.0599C26.0334 36.4976 26.1524 36.9197 26.2811 37.3244C26.6951 37.2338 27.1192 37.126 27.5515 37.0009ZM22.9771 30.9411C22.9674 30.6298 22.9625 30.3161 22.9625 30C22.9625 29.6842 22.9674 29.3707 22.977 29.0598C22.653 29.3723 22.348 29.6864 22.0629 30.0004C22.348 30.3144 22.653 30.6285 22.9771 30.9411ZM20.6427 31.7986C21.4117 32.6161 22.2888 33.4199 23.2604 34.1896C23.4396 35.4181 23.6956 36.5816 24.0174 37.6581C23.9687 37.6614 23.9202 37.6645 23.872 37.6672C21.1203 37.8247 19.8846 37.0373 19.4985 36.3671C19.1124 35.6968 19.05 34.2304 20.5619 31.9204C20.5885 31.8799 20.6154 31.8393 20.6427 31.7986ZM30.4997 38.3793C31.6505 38.8379 32.7836 39.1974 33.8744 39.4563C33.8529 39.5003 33.8313 39.5439 33.8096 39.5871C32.5698 42.0545 31.2717 42.7335 30.4995 42.7335C29.7274 42.7335 28.4293 42.0545 27.1895 39.5871C27.1678 39.5438 27.1462 39.5003 27.1247 39.4563C28.2156 39.1974 29.3488 38.8379 30.4997 38.3793Z" fill="#003CBE"/>
</svg>
