<svg width="20" height="20" viewBox="0 0 20 20" fill="none" xmlns="http://www.w3.org/2000/svg">
<path d="M9.27068 19.6604C9.27068 19.8479 9.42273 20 9.6103 20H18.6767C19.4075 20 20 19.3918 20 18.6415V11.3585C20 11.1709 19.8479 11.0189 19.6604 11.0189H9.6103C9.42273 11.0189 9.27068 11.1709 9.27068 11.3585V19.6604Z" fill="#666666"/>
<path d="M19.6604 8.98113C19.8479 8.98113 20 8.82908 20 8.64151V1.35849C20 0.608217 19.4075 0 18.6767 0H9.6103C9.42273 0 9.27068 0.152055 9.27068 0.339625V8.64151C9.27068 8.82908 9.42273 8.98113 9.6103 8.98113H19.6604Z" fill="#666666"/>
<path d="M7.28571 0.339626C7.28571 0.152056 7.13366 0 6.94609 0H1.32331C0.592465 0 0 0.608217 0 1.35849V18.6415C0 19.3918 0.592465 20 1.32331 20H6.94609C7.13366 20 7.28571 19.8479 7.28571 19.6604L7.28571 0.339626Z" fill="#666666"/>
</svg>
