<svg width="25" height="20" viewBox="0 0 25 20" fill="none" xmlns="http://www.w3.org/2000/svg">
<path d="M20.6875 16.1875C20.6875 16.9334 20.3912 17.6488 19.8637 18.1762C19.3363 18.7037 18.6209 19 17.875 19C17.1291 19 16.4137 18.7037 15.8863 18.1762C15.3588 17.6488 15.0625 16.9334 15.0625 16.1875C15.0625 15.4416 15.3588 14.7262 15.8863 14.1988C16.4137 13.6713 17.1291 13.375 17.875 13.375C18.6209 13.375 19.3363 13.6713 19.8637 14.1988C20.3912 14.7262 20.6875 15.4416 20.6875 16.1875ZM9.4375 16.1875C9.4375 16.9334 9.14118 17.6488 8.61374 18.1762C8.08629 18.7037 7.37092 19 6.625 19C5.87908 19 5.16371 18.7037 4.63626 18.1762C4.10882 17.6488 3.8125 16.9334 3.8125 16.1875C3.8125 15.4416 4.10882 14.7262 4.63626 14.1988C5.16371 13.6713 5.87908 13.375 6.625 13.375C7.37092 13.375 8.08629 13.6713 8.61374 14.1988C9.14118 14.7262 9.4375 15.4416 9.4375 16.1875Z" stroke="#666666" stroke-width="1.8" stroke-linecap="round" stroke-linejoin="round"/>
<path d="M15.0625 16.1875H9.4375M1 1H12.25C13.8408 1 14.6361 1 15.13 1.495C15.625 1.98775 15.625 2.78313 15.625 4.375V13.9375M16.1875 3.8125H18.2136C19.1474 3.8125 19.6142 3.8125 20.0012 4.03188C20.3882 4.25013 20.6279 4.65062 21.1083 5.45162L23.0196 8.63537C23.2581 9.03362 23.3774 9.23388 23.4392 9.45438C23.5 9.676 23.5 9.90775 23.5 10.3724V13.375C23.5 14.4269 23.5 14.9523 23.2739 15.3438C23.1258 15.6003 22.9128 15.8133 22.6562 15.9614C22.2648 16.1875 21.7394 16.1875 20.6875 16.1875M1 11.125V13.375C1 14.4269 1 14.9523 1.22612 15.3438C1.37423 15.6003 1.58724 15.8133 1.84375 15.9614C2.23525 16.1875 2.76062 16.1875 3.8125 16.1875M1 4.375H7.75M1 7.75H5.5" stroke="#666666" stroke-width="1.8" stroke-linecap="round" stroke-linejoin="round"/>
</svg>
