<svg width="33" height="24" viewBox="0 0 33 24" fill="none" xmlns="http://www.w3.org/2000/svg">
<path fill-rule="evenodd" clip-rule="evenodd" d="M3.03949 12C3.90596 13.195 5.68179 15.4466 8.02018 17.4071C10.4448 19.4398 13.2839 21 16.2152 21C19.1464 21 21.9855 19.4398 24.4101 17.4071C26.7485 15.4466 28.5243 13.195 29.3908 12C28.5243 10.805 26.7485 8.55336 24.4101 6.59293C21.9855 4.56023 19.1464 3 16.2152 3C13.2839 3 10.4448 4.56023 8.02018 6.59293C5.68179 8.55336 3.90596 10.805 3.03949 12ZM6.09281 4.29397C8.7354 2.07852 12.2496 0 16.2152 0C20.1807 0 23.6949 2.07852 26.3375 4.29397C29.0057 6.5309 30.9799 9.07071 31.8921 10.3395C32.6097 11.3376 32.6097 12.6624 31.8921 13.6605C30.9799 14.9293 29.0057 17.4691 26.3375 19.706C23.6949 21.9215 20.1807 24 16.2152 24C12.2496 24 8.7354 21.9215 6.09281 19.706C3.42459 17.4691 1.45036 14.9293 0.538164 13.6605C-0.179387 12.6624 -0.179389 11.3376 0.538164 10.3395C1.45036 9.07071 3.42459 6.5309 6.09281 4.29397Z" fill="#003CBE"/>
<path fill-rule="evenodd" clip-rule="evenodd" d="M16.2152 15C17.872 15 19.2152 13.6569 19.2152 12C19.2152 10.3431 17.872 9 16.2152 9C14.5583 9 13.2152 10.3431 13.2152 12C13.2152 13.6569 14.5583 15 16.2152 15ZM16.2152 18C19.5289 18 22.2152 15.3137 22.2152 12C22.2152 8.68629 19.5289 6 16.2152 6C12.9014 6 10.2152 8.68629 10.2152 12C10.2152 15.3137 12.9014 18 16.2152 18Z" fill="#003CBE"/>
</svg>
