<svg width="21" height="23" viewBox="0 0 21 23" fill="none" xmlns="http://www.w3.org/2000/svg">
<path fill-rule="evenodd" clip-rule="evenodd" d="M6.6015 4.03077C4.09377 3.75566 2.08338 4.31982 1.25068 5.7621C0.417939 7.20445 0.934648 9.22771 2.42694 11.262C0.934647 13.2963 0.417938 15.3196 1.25068 16.7619C2.08341 18.2043 4.0939 18.7684 6.60175 18.4932C7.61736 20.8027 9.11117 22.2617 10.7766 22.2617C12.4421 22.2617 13.9359 20.8027 14.9515 18.4933C17.4596 18.7687 19.4704 18.2046 20.3032 16.7621C21.136 15.3197 20.6192 13.2964 19.1269 11.262C20.6192 9.22766 21.136 7.20432 20.3032 5.76193C19.4705 4.31951 17.4598 3.75538 14.9517 4.03068C13.9361 1.72097 12.4422 0.261719 10.7766 0.261719C9.11103 0.261719 7.61711 1.72101 6.6015 4.03077ZM7.67562 5.89108C7.58099 6.1879 7.49355 6.49743 7.41413 6.81852C7.60835 6.69816 7.80596 6.57989 8.00683 6.46392C8.20747 6.34808 8.40847 6.2362 8.60958 6.12829C8.29179 6.03654 7.98 5.95752 7.67562 5.89108ZM6.01162 5.64639C5.77511 6.43586 5.58695 7.2891 5.45525 8.19001C4.74109 8.75442 4.09642 9.34388 3.53112 9.94332C3.51107 9.91349 3.49129 9.88372 3.47178 9.85399C2.36043 8.16002 2.4063 7.08467 2.69009 6.59314C2.97387 6.10161 3.88221 5.52421 5.90491 5.63968C5.9403 5.6417 5.97587 5.64394 6.01162 5.64639ZM8.29562 4.32763C9.0976 4.51749 9.93064 4.78113 10.7767 5.11752C11.6228 4.78115 12.4557 4.5175 13.2576 4.32762C13.2418 4.29521 13.2258 4.26307 13.2098 4.23119C12.2984 2.42175 11.3442 1.9238 10.7766 1.9238C10.2091 1.9238 9.25484 2.42175 8.34349 4.23119C8.32744 4.26307 8.31148 4.29522 8.29562 4.32763ZM10.7768 6.91903C10.1377 7.20005 9.48823 7.52783 8.83787 7.90332C8.18728 8.27894 7.57849 8.67766 7.01543 9.09073C6.9393 9.78458 6.89844 10.5108 6.89844 11.2617C6.89844 12.0128 6.93933 12.7393 7.0155 13.4334C7.57854 13.8464 8.18731 14.2451 8.83787 14.6207C9.48823 14.9962 10.1377 15.324 10.7768 15.605C11.4159 15.3239 12.0656 14.9961 12.7161 14.6205C13.3663 14.2451 13.9749 13.8466 14.5377 13.4337C14.6139 12.7396 14.6548 12.013 14.6548 11.2617C14.6548 10.5107 14.6139 9.78433 14.5378 9.09037C13.9749 8.67749 13.3664 8.27895 12.7161 7.90349C12.0656 7.52793 11.4159 7.20009 10.7768 6.91903ZM14.139 6.81822C13.9451 6.69802 13.7477 6.57991 13.5471 6.46409C13.3463 6.34817 13.1452 6.23621 12.9439 6.12824C13.2616 6.03651 13.5733 5.95749 13.8776 5.89106C13.9722 6.1878 14.0596 6.49723 14.139 6.81822ZM16.3062 10.5717C16.3133 10.7999 16.3169 11.03 16.3169 11.2617C16.3169 11.4937 16.3133 11.7239 16.3061 11.9523C16.5445 11.723 16.7689 11.4924 16.9787 11.262C16.7689 11.0316 16.5446 10.8011 16.3062 10.5717ZM18.0227 9.94335C17.4572 9.34375 16.8123 8.75415 16.0979 8.1896C15.9662 7.28879 15.7781 6.43565 15.5416 5.64627C15.5776 5.6438 15.6134 5.64155 15.649 5.63951C17.6717 5.52404 18.5801 6.10144 18.8638 6.59297C19.1476 7.0845 19.1935 8.15985 18.0821 9.85382C18.0626 9.88361 18.0428 9.91346 18.0227 9.94335ZM18.0227 12.5807C17.4572 13.1803 16.8123 13.7699 16.0978 14.3345C15.9661 15.2353 15.7779 16.0884 15.5414 16.8777C15.5775 16.8802 15.6133 16.8825 15.649 16.8845C17.6717 17 18.5801 16.4226 18.8638 15.9311C19.1476 15.4395 19.1935 14.3642 18.0821 12.6702C18.0626 12.6404 18.0428 12.6106 18.0227 12.5807ZM13.8774 16.6329C13.972 16.3362 14.0595 16.0269 14.1389 15.7059C13.9449 15.8261 13.7476 15.9442 13.5471 16.0599C13.3463 16.1759 13.1452 16.2878 12.9439 16.3958C13.2616 16.4875 13.5732 16.5665 13.8774 16.6329ZM8.60958 16.3957C8.40847 16.2878 8.20747 16.176 8.00683 16.0601C7.80602 15.9442 7.60847 15.8259 7.4143 15.7056C7.49373 16.0267 7.58117 16.3361 7.6758 16.6329C7.98012 16.5665 8.29185 16.4875 8.60958 16.3957ZM5.24708 11.9518C5.23997 11.7236 5.23636 11.4935 5.23636 11.2617C5.23636 11.0301 5.23996 10.8002 5.24706 10.5722C5.00887 10.8014 4.78468 11.0318 4.57507 11.262C4.78468 11.4923 5.00888 11.7226 5.24708 11.9518ZM3.53112 12.5807C4.09644 13.1802 4.74115 13.7697 5.45535 14.3341C5.58707 15.235 5.77526 16.0882 6.01179 16.8776C5.97599 16.8801 5.94036 16.8823 5.90491 16.8843C3.88221 16.9998 2.97387 16.4224 2.69009 15.9309C2.4063 15.4394 2.36043 14.364 3.47178 12.67C3.49129 12.6403 3.51107 12.6105 3.53112 12.5807ZM10.7767 17.4065C11.6227 17.7428 12.4555 18.0065 13.2574 18.1964C13.2416 18.2286 13.2257 18.2605 13.2098 18.2922C12.2984 20.1017 11.3442 20.5996 10.7766 20.5996C10.2091 20.5996 9.25484 20.1017 8.34349 18.2922C8.32752 18.2605 8.31165 18.2286 8.29588 18.1963C9.09778 18.0065 9.93073 17.7429 10.7767 17.4065Z" fill="#666666"/>
</svg>
