<svg width="7" height="24" viewBox="0 0 7 24" fill="none" xmlns="http://www.w3.org/2000/svg">
<path d="M6.21484 3C6.21484 4.65685 4.8717 6 3.21484 6C1.55799 6 0.214844 4.65685 0.214844 3C0.214844 1.34315 1.55799 0 3.21484 0C4.8717 0 6.21484 1.34315 6.21484 3Z" fill="#003CBE"/>
<path d="M6.21484 12C6.21484 13.6569 4.8717 15 3.21484 15C1.55799 15 0.214844 13.6569 0.214844 12C0.214844 10.3431 1.55799 9 3.21484 9C4.8717 9 6.21484 10.3431 6.21484 12Z" fill="#003CBE"/>
<path d="M6.21484 21C6.21484 22.6569 4.8717 24 3.21484 24C1.55799 24 0.214844 22.6569 0.214844 21C0.214844 19.3431 1.55799 18 3.21484 18C4.8717 18 6.21484 19.3431 6.21484 21Z" fill="#003CBE"/>
</svg>
