<svg width="20" height="21" viewBox="0 0 20 21" fill="none" xmlns="http://www.w3.org/2000/svg">
<path d="M10.2268 3.63475C10.0845 3.57784 9.92596 3.57695 9.78307 3.63226L4.34076 5.7388C4.12739 5.8344 4.12545 6.13666 4.33758 6.23499L9.8198 8.7764C9.91773 8.8218 10.0308 8.82132 10.1283 8.77511L15.4915 6.23397C15.7009 6.13477 15.699 5.83614 15.4883 5.73967L10.2268 3.63475Z" fill="#666666"/>
<path d="M3.20376 13.9455C3.20376 14.2967 3.40611 14.6165 3.72348 14.7668L9.01509 17.2816C9.17589 17.358 9.36144 17.2408 9.36144 17.0628C9.36144 15.0708 9.36144 12.4171 9.36144 10.2222C9.36144 10.0817 9.2805 9.95384 9.15355 9.89369L3.59311 7.25944C3.41223 7.17375 3.20376 7.30569 3.20376 7.50585C3.20376 10.1798 3.20376 11.3982 3.20376 13.9455Z" fill="#666666"/>
<path d="M16.2834 14.6562C16.5961 14.504 16.7946 14.1867 16.7946 13.8389C16.7946 11.1258 16.7946 9.75337 16.7946 7.38754C16.7946 7.18614 16.5838 7.05425 16.4027 7.14236L10.776 9.88008C10.6509 9.94095 10.5715 10.0679 10.5715 10.207C10.5715 12.4216 10.5715 15.0863 10.5715 17.0582C10.5715 17.2373 10.7592 17.3545 10.9202 17.2759L16.2834 14.6562Z" fill="#666666"/>
<path d="M0.912318 6.86256C0.41042 6.86256 0.00355035 6.45566 0.00355032 5.95371L0.00355016 2.31477C0.00355012 1.31088 0.817289 0.49707 1.82109 0.49707H5.45616C5.95806 0.49707 6.36493 0.903976 6.36493 1.40592C6.36493 1.90786 5.95806 2.31477 5.45616 2.31477L1.82109 2.31477L1.82109 5.95371C1.82109 6.45566 1.41422 6.86256 0.912318 6.86256Z" fill="#666666"/>
<path d="M14.5438 0.498846C14.0419 0.498846 13.6351 0.905751 13.6351 1.40769C13.6351 1.90964 14.0419 2.31654 14.5438 2.31654H18.1825V5.95194C18.1825 6.45388 18.5893 6.86079 19.0912 6.86079C19.5931 6.86079 20 6.45388 20 5.95194V2.31654C20 1.31266 19.1863 0.498846 18.1825 0.498846H14.5438Z" fill="#666666"/>
<path d="M19.9965 15.0404C19.9965 14.5385 19.5896 14.1316 19.0877 14.1316C18.5858 14.1316 18.1789 14.5385 18.1789 15.0404V18.6794H14.5438C14.0419 18.6794 13.6351 19.0863 13.6351 19.5882C13.6351 20.0902 14.0419 20.4971 14.5438 20.4971H18.1789C19.1827 20.4971 19.9965 19.6833 19.9965 18.6794V15.0404Z" fill="#666666"/>
<path d="M5.45616 20.4935C5.95806 20.4935 6.36493 20.0866 6.36493 19.5847C6.36493 19.0827 5.95806 18.6758 5.45616 18.6758H1.81754L1.81754 15.0404C1.81754 14.5385 1.41067 14.1316 0.908768 14.1316C0.406869 14.1316 0 14.5385 0 15.0404V18.6758C0 19.6797 0.813739 20.4935 1.81754 20.4935H5.45616Z" fill="#666666"/>
</svg>
