<svg width="16" height="20" viewBox="0 0 16 20" fill="none" xmlns="http://www.w3.org/2000/svg">
<path fill-rule="evenodd" clip-rule="evenodd" d="M2 18H14L14 5.82843L10.1716 2H2V18ZM2 0C0.895431 0 0 0.895431 0 2V18C0 19.1046 0.895431 20 2 20H14C15.1046 20 16 19.1046 16 18V5.82843C16 5.29799 15.7893 4.78929 15.4142 4.41421L11.5858 0.585786C11.2107 0.210714 10.702 0 10.1716 0H2Z" fill="#666666"/>
<path d="M4 15C4 14.4477 4.44772 14 5 14H11C11.5523 14 12 14.4477 12 15C12 15.5523 11.5523 16 11 16H5C4.44772 16 4 15.5523 4 15Z" fill="#666666"/>
<path d="M4 11C4 10.4477 4.44772 10 5 10H9C9.55228 10 10 10.4477 10 11C10 11.5523 9.55228 12 9 12H5C4.44772 12 4 11.5523 4 11Z" fill="#666666"/>
<path d="M4 7C4 6.44772 4.44772 6 5 6H7C7.55228 6 8 6.44772 8 7C8 7.55228 7.55228 8 7 8H5C4.44772 8 4 7.55228 4 7Z" fill="#666666"/>
</svg>
