<svg width="22" height="22" viewBox="0 0 22 22" fill="none" xmlns="http://www.w3.org/2000/svg">
<path d="M19.8841 9.46778V18.7778C19.8841 19.3671 19.65 19.9324 19.2333 20.3491C18.8165 20.7659 18.2513 21 17.662 21H4.33802C3.74887 20.9997 3.18394 20.7655 2.76745 20.3487C2.35096 19.932 2.11699 19.367 2.11699 18.7778V9.46778M6.00241 7.38889L6.55794 1M6.00241 7.38889C6.00241 10.6133 11 10.6133 11 7.38889M6.00241 7.38889C6.00241 10.9178 0.27484 10.1889 1.07703 7.11333L2.2381 2.66111C2.36219 2.18559 2.6404 1.76461 3.0292 1.46405C3.41801 1.16349 3.89548 1.00029 4.38691 1H17.6131C18.1045 1.00029 18.582 1.16349 18.9708 1.46405C19.3596 1.76461 19.6378 2.18559 19.7619 2.66111L20.923 7.11333C21.7252 10.19 15.9976 10.9178 15.9976 7.38889M11 7.38889V1M11 7.38889C11 10.6133 15.9976 10.6133 15.9976 7.38889M15.9976 7.38889L15.4421 1" stroke="#666666" stroke-width="1.8" stroke-linecap="round" stroke-linejoin="round"/>
</svg>
