<svg width="22" height="20" viewBox="0 0 22 20" fill="none" xmlns="http://www.w3.org/2000/svg">
<path d="M11.8285 0.921766C11.8285 0.412689 11.4586 0 11.0024 0C10.5463 0 10.1764 0.412689 10.1764 0.921766V2.51869C10.1764 3.02777 10.5463 3.44046 11.0024 3.44046C11.4586 3.44046 11.8285 3.02777 11.8285 2.51869V0.921766Z" fill="#666666"/>
<path fill-rule="evenodd" clip-rule="evenodd" d="M7.78693 8.09962C7.78693 6.3161 9.22608 4.87027 11.0014 4.87027C12.7766 4.87027 14.2158 6.3161 14.2158 8.09962C14.2158 9.88314 12.7766 11.329 11.0014 11.329C9.22608 11.329 7.78693 9.88314 7.78693 8.09962ZM11.0014 6.52998C10.1385 6.52998 9.43897 7.23273 9.43897 8.09962C9.43897 8.96651 10.1385 9.66926 11.0014 9.66926C11.8642 9.66926 12.5637 8.96651 12.5637 8.09962C12.5637 7.23273 11.8642 6.52998 11.0014 6.52998Z" fill="#666666"/>
<path fill-rule="evenodd" clip-rule="evenodd" d="M5.99464 14.5893C6.92557 13.2225 8.53773 12.2839 11.0023 12.2839C13.4668 12.2839 15.079 13.2225 16.0099 14.5893C16.8767 15.8621 17.0007 17.2883 17.0032 18.0369C17.0073 19.2191 16.0529 20 15.077 20H6.9275C5.95165 20 4.99725 19.2191 5.00129 18.0369C5.00385 17.2883 5.1278 15.8621 5.99464 14.5893ZM11.0023 13.9436C9.00328 13.9436 7.9386 14.6742 7.35807 15.5266C6.76412 16.3987 6.6554 17.4308 6.65331 18.0426C6.65295 18.1501 6.6911 18.2166 6.73751 18.2611C6.79185 18.3132 6.86415 18.3403 6.9275 18.3403H15.077C15.1404 18.3403 15.2127 18.3132 15.267 18.2611C15.3134 18.2166 15.3516 18.1501 15.3512 18.0426C15.3491 17.4309 15.2404 16.3987 14.6465 15.5266C14.0659 14.6742 13.0013 13.9436 11.0023 13.9436Z" fill="#666666"/>
<path fill-rule="evenodd" clip-rule="evenodd" d="M2.01445 9.47338C2.01445 7.99252 3.20937 6.79205 4.68338 6.79205C6.15739 6.79205 7.35231 7.99252 7.35231 9.47338C7.35231 10.9542 6.15739 12.1547 4.68338 12.1547C3.20937 12.1547 2.01445 10.9542 2.01445 9.47338ZM4.68338 8.45176C4.12177 8.45176 3.66649 8.90915 3.66649 9.47338C3.66649 10.0376 4.12177 10.495 4.68338 10.495C5.245 10.495 5.70028 10.0376 5.70028 9.47338C5.70028 8.90915 5.245 8.45176 4.68338 8.45176Z" fill="#666666"/>
<path d="M4.92049 14.2842C5.21368 13.8537 5.56926 13.4041 5.99638 12.9787C5.73627 12.9501 5.46342 12.9353 5.17752 12.9353C3.06812 12.9353 1.66893 13.7411 0.858258 14.9314C0.107637 16.0335 0.0021984 17.2642 1.15709e-05 17.9045C-0.00365383 18.9778 0.864115 19.6877 1.75115 19.6877H4.26638C3.94308 19.4094 3.72501 18.9907 3.72677 18.4764C3.72723 18.3414 3.73089 18.191 3.73972 18.028H1.75115C1.73222 18.028 1.70377 18.0187 1.68214 17.9979C1.673 17.9892 1.66644 17.9796 1.66188 17.969C1.65769 17.9593 1.65193 17.9413 1.65204 17.9102C1.65376 17.4067 1.74396 16.5701 2.22169 15.8686C2.63641 15.2597 3.36891 14.7141 4.71232 14.6121C4.77743 14.5019 4.84674 14.3925 4.92049 14.2842Z" fill="#666666"/>
<path d="M17.7384 19.6879H20.2488C21.1359 19.6879 22.0037 18.978 22 17.9046C21.9978 17.2643 21.8924 16.0337 21.1417 14.9315C20.3311 13.7412 18.9319 12.9354 16.8224 12.9354C16.5382 12.9354 16.2669 12.9501 16.0082 12.9783C16.4355 13.4038 16.7912 13.8535 17.0845 14.2842C17.1583 14.3926 17.2278 14.5022 17.2929 14.6126C18.633 14.7157 19.3641 15.2606 19.7783 15.8687C20.256 16.5702 20.3462 17.4068 20.348 17.9103C20.3481 17.9414 20.3423 17.9594 20.3381 17.9692C20.3336 17.9798 20.327 17.9893 20.3179 17.9981C20.2962 18.0188 20.2678 18.0281 20.2488 18.0281H18.2653C18.2741 18.1911 18.2777 18.3414 18.2782 18.4764C18.28 18.9907 18.0618 19.4095 17.7384 19.6879Z" fill="#666666"/>
<path fill-rule="evenodd" clip-rule="evenodd" d="M17.3233 6.82183C15.8475 6.82183 14.651 8.02381 14.651 9.50653C14.651 10.9892 15.8475 12.1912 17.3233 12.1912C18.7992 12.1912 19.9956 10.9892 19.9956 9.50653C19.9956 8.02381 18.7992 6.82183 17.3233 6.82183ZM16.3031 9.50653C16.3031 8.94044 16.7598 8.48153 17.3233 8.48153C17.8868 8.48153 18.3436 8.94044 18.3436 9.50653C18.3436 10.0726 17.8868 10.5315 17.3233 10.5315C16.7598 10.5315 16.3031 10.0726 16.3031 9.50653Z" fill="#666666"/>
<path d="M16.1286 2.04215C16.4512 2.36623 16.4222 2.92076 16.0639 3.28073L14.9399 4.40993C14.5816 4.76991 14.0296 4.799 13.7071 4.47492C13.3845 4.15085 13.4134 3.59631 13.7718 3.23634L14.8957 2.10714C15.254 1.74717 15.806 1.71807 16.1286 2.04215Z" fill="#666666"/>
<path d="M7.09434 2.10714C6.73603 1.74717 6.18406 1.71807 5.86148 2.04215C5.5389 2.36623 5.56787 2.92076 5.92617 3.28073L7.05015 4.40993C7.40846 4.76991 7.96043 4.799 8.28301 4.47493C8.60559 4.15085 8.57663 3.59631 8.21832 3.23634L7.09434 2.10714Z" fill="#666666"/>
</svg>
