<svg width="23" height="23" viewBox="0 0 23 23" fill="none" xmlns="http://www.w3.org/2000/svg">
<path d="M19.5891 12.0446L20.9798 13.283C21.2366 13.4973 21.4082 13.7965 21.4636 14.1264C21.5189 14.4563 21.4542 14.7951 21.2814 15.0814L19.6045 17.9459C19.4744 18.1652 19.2886 18.3462 19.066 18.4705C18.8409 18.5951 18.588 18.6613 18.3307 18.6628C18.171 18.6638 18.0122 18.64 17.8599 18.5921L16.08 18.0044C15.7682 18.2044 15.4441 18.3834 15.1077 18.5413L14.7339 20.3459C14.6647 20.6778 14.4799 20.9744 14.2124 21.1828C13.9415 21.3948 13.6056 21.5068 13.2616 21.4997H9.78942C9.44545 21.5068 9.10959 21.3948 8.83868 21.1828C8.57174 20.9742 8.38748 20.6776 8.3187 20.3459L7.94333 18.5413C7.61134 18.3813 7.28923 18.2014 6.97874 18.0029L5.19265 18.5921C5.04035 18.64 4.88153 18.6638 4.72189 18.6628C4.46507 18.661 4.21279 18.5949 3.98807 18.4705C3.76567 18.3466 3.57994 18.1662 3.44963 17.9475L1.71276 15.0814C1.53219 14.7925 1.4632 14.4476 1.51871 14.1114C1.57422 13.7753 1.75042 13.4709 2.01429 13.2553L3.40347 11.5V10.9554L2.01275 9.71698C1.75593 9.50267 1.58433 9.20349 1.52902 8.8736C1.47371 8.54372 1.53835 8.20493 1.71122 7.91858L3.44809 5.05405C3.57818 4.83478 3.76394 4.6538 3.98653 4.52945C4.21125 4.4051 4.46353 4.33899 4.72035 4.33715C4.87855 4.32717 5.03735 4.3417 5.19111 4.38023L6.94182 4.99559C7.25463 4.7956 7.57872 4.61663 7.9141 4.45869L8.28947 2.65413C8.35825 2.3224 8.54251 2.02584 8.80945 1.81723C9.08036 1.60516 9.41622 1.4932 9.76019 1.50032H13.2032C13.5471 1.4932 13.883 1.60516 14.1539 1.81723C14.4231 2.028 14.6077 2.32491 14.6739 2.65413L15.0493 4.45869C15.3826 4.61766 15.7041 4.79714 16.0138 4.99713L17.8015 4.40946C17.9999 4.34492 18.2095 4.32226 18.4171 4.34291C18.6247 4.36357 18.8258 4.42709 19.0076 4.52945C19.2307 4.6556 19.4153 4.83714 19.546 5.05251L21.2814 7.91858C21.4644 8.20506 21.5369 8.54835 21.4853 8.88436C21.4338 9.22038 21.2618 9.52617 21.0014 9.74467L19.5891 10.9477V12.0446Z" stroke="#666666" stroke-width="1.8"/>
<path d="M15.3461 11.4998C15.3461 12.5199 14.9409 13.4981 14.2196 14.2194C13.4984 14.9407 12.5201 15.3459 11.5001 15.3459C10.4801 15.3459 9.5018 14.9407 8.78053 14.2194C8.05926 13.4981 7.65405 12.5199 7.65405 11.4998C7.65405 10.4798 8.05926 9.50156 8.78053 8.78028C9.5018 8.05901 10.4801 7.65381 11.5001 7.65381C12.5201 7.65381 13.4984 8.05901 14.2196 8.78028C14.9409 9.50156 15.3461 10.4798 15.3461 11.4998Z" stroke="#666666" stroke-width="1.8"/>
</svg>
