<svg width="26" height="26" viewBox="0 0 26 26" fill="none" xmlns="http://www.w3.org/2000/svg">
<path fill-rule="evenodd" clip-rule="evenodd" d="M0.674553 0.688108C1.5738 -0.207091 3.03159 -0.206912 3.93062 0.688507L12.9378 9.65358L21.9563 0.672214C22.855 -0.223499 24.3128 -0.224155 25.2123 0.670749C26.1119 1.56565 26.1126 3.01723 25.2138 3.91295L16.1934 12.8962L25.3258 22.0865C26.2249 22.9819 26.2247 24.4335 25.3254 25.3287C24.4262 26.2239 22.9684 26.2237 22.0694 25.3283L12.9388 16.1398L4.00726 25.2586C3.10853 26.1543 1.65074 26.155 0.751196 25.2601C-0.148348 24.3652 -0.149007 22.9136 0.749724 22.0179L9.68316 12.8972L0.674153 3.93031C-0.224874 3.03489 -0.224695 1.58331 0.674553 0.688108Z" fill="#003CBE"/>
</svg>
