<svg width="60" height="60" viewBox="0 0 60 60" fill="none" xmlns="http://www.w3.org/2000/svg">
<circle opacity="0.5" cx="30" cy="30" r="30" fill="#E2E7FF"/>
<path fill-rule="evenodd" clip-rule="evenodd" d="M24.3335 18C24.3335 16.3431 25.6766 15 27.3335 15H33.3335C34.9904 15 36.3335 16.3431 36.3335 18V24H42.3335C43.9903 24 45.3335 25.3431 45.3335 27V42C45.3335 43.6569 43.9903 45 42.3335 45H18.3335C16.6766 45 15.3335 43.6569 15.3335 42V33C15.3335 31.3431 16.6766 30 18.3335 30H24.3335V18ZM33.3335 42V18L27.3335 18V42H33.3335ZM36.3335 27V42H42.3335V27H36.3335ZM18.3335 33H24.3335V42H18.3335V33Z" fill="#5E51A3"/>
</svg>
