<svg width="60" height="60" viewBox="0 0 60 60" fill="none" xmlns="http://www.w3.org/2000/svg">
<circle opacity="0.5" cx="30" cy="30" r="30" fill="#E0FFD9"/>
<path d="M43.3262 27.7017V41.6667C43.3262 42.5507 42.975 43.3986 42.3499 44.0237C41.7248 44.6488 40.877 45 39.993 45H20.007C19.1233 44.9996 18.2759 44.6482 17.6512 44.0231C17.0264 43.398 16.6755 42.5504 16.6755 41.6667V27.7017M22.5036 24.5833L23.3369 15M22.5036 24.5833C22.5036 29.42 30 29.42 30 24.5833M22.5036 24.5833C22.5036 29.8767 13.9123 28.7833 15.1155 24.17L16.8572 17.4917C17.0433 16.7784 17.4606 16.1469 18.0438 15.6961C18.627 15.2452 19.3432 15.0004 20.0804 15H39.9196C40.6568 15.0004 41.373 15.2452 41.9562 15.6961C42.5394 16.1469 42.9567 16.7784 43.1428 17.4917L44.8845 24.17C46.0877 28.785 37.4964 29.8767 37.4964 24.5833M30 24.5833V15M30 24.5833C30 29.42 37.4964 29.42 37.4964 24.5833M37.4964 24.5833L36.6631 15" stroke="#51A44B" stroke-width="2.2" stroke-linecap="round" stroke-linejoin="round"/>
</svg>
